<svg xmlns="http://www.w3.org/2000/svg" style="display:none">
  <!-- LinkedIn -->
  <symbol id="icon-linkedin" viewBox="0 0 448 512">
    <path d="M416 32H31.9C14.3 32 0 46.5 0 64.3v383.4C0 465.5 14.3 480 31.9 480H416c17.6 0 32-14.5 32-32.3V64.3c0-17.8-14.4-32.3-32-32.3zM135.4 416H69V202.2h66.5V416zm-33.2-243c-21.3 0-38.5-17.3-38.5-38.5S80.9 96 102.2 96c21.2 0 38.5 17.3 38.5 38.5 0 21.3-17.2 38.5-38.5 38.5zm282.1 243h-66.4V312c0-24.8-.5-56.7-34.5-56.7-34.6 0-39.9 27-39.9 54.9V416h-66.4V202.2h63.7v29.2h.9c8.9-16.8 30.6-34.5 62.9-34.5 67.2 0 79.7 44.3 79.7 101.9V416z"/>
  </symbol>
  <!-- GitHub -->
  <symbol id="icon-github" viewBox="0 0 496 512">
    <path d="M165.9 397.4c0 2-2.3 3.6-5.2 3.6-3.3.3-5.6-1.3-5.6-3.6 0-2 2.3-3.6 5.2-3.6 3-.3 5.6 1.3 5.6 3.6zm-31.1-4.5c-.7 2 1.3 4.3 4.3 4.9 2.6 1 5.6 0 6.2-2s-1.3-4.3-4.3-5.2c-2.6-.7-5.5.3-6.2 2.3zm44.2-1.7c-2.9.7-4.9 2.6-4.6 4.9.3 2 2.9 3.3 5.9 2.6 2.9-.7 4.9-2.6 4.6-4.6-.3-1.9-3-3.2-5.9-2.9zM244.8 8C106.1 8 0 113.3 0 252c0 110.9 69.8 205.8 169.5 239.2 12.8 2.3 17.3-5.6 17.3-12.1 0-6.2-.3-40.4-.3-61.4 0 0-70 15-84.7-29.8 0 0-11.4-29.1-27.8-36.6 0 0-22.9-15.7 1.6-15.4 0 0 24.9 2 38.6 25.8 21.9 38.6 58.6 27.5 72.9 20.9 2.3-16 8.8-27.1 16-33.7-55.9-6.2-112.3-14.3-112.3-110.5 0-27.5 7.6-41.3 23.6-58.9-2.6-6.5-11.1-33.3 2.6-67.9 20.9-6.5 69 27 69 27 20-5.6 41.5-8.5 62.8-8.5s42.8 2.9 62.8 8.5c0 0 48.1-33.6 69-27 13.7 34.7 5.2 61.4 2.6 67.9 16 17.7 25.8 31.5 25.8 58.9 0 96.5-58.9 104.2-114.8 110.5 9.2 7.9 17 22.9 17 46.4 0 33.7-.3 75.4-.3 83.6 0 6.5 4.6 14.4 17.3 12.1C428.2 457.8 496 362.9 496 252 496 113.3 383.5 8 244.8 8z"/>
  </symbol>
  <!-- Keybase -->
  <symbol id="icon-keybase" viewBox="0 0 448 512">
    <path d="M286.17 419a18 18 0 1 0 18 18 18 18 0 0 0-18-18zm111.92-147.6c-9.5-14.62-39.37-52.45-87.26-73.71q-9.1-4.09-18.38-7.27a78.43 78.43 0 0 0-47.88-104.13c-12.41-4.1-23.33-6-32.81-5.78a28.84 28.84 0 0 0-14.13 3.32 28.28 28.28 0 0 0-12.31 14.11 29.23 29.23 0 0 0 1.4 23.29c4.24 7.76 11.48 12.45 18.84 16.19a49.35 49.35 0 0 1 14.62 10.26 38.85 38.85 0 0 1 7.37 9.39 44.13 44.13 0 0 1 5.39 28.73c-2.19 12.38-9.38 22.76-20.07 29.21a55.78 55.78 0 0 1-51.38 3.1c-22.7-9.6-34.17-30.27-35.64-56.18-.71-12.62 1.1-25.2 3.79-37.56a76.07 76.07 0 0 0-1.77-37.84c-3.9-13.5-13-22.09-23.5-22.09-4.72 0-9.72 1.52-14.91 4.51-1.38.8-2.77 1.64-4.14 2.5a72.61 72.61 0 0 0-22.3 22.91 73.84 73.84 0 0 0-9.82 32.37c-1.64 14.26 1.07 30.91 13.85 48.63a97.36 97.36 0 0 1 8 14.75c-17.46-11.64-36.06-23.44-52.64-34.17-12.45-8-25.42-16.83-36.86-26.09 8.73-20.28 22.37-38.5 38.65-53.29A222.52 222.52 0 0 1 224 32c61.65 0 117.23 24.84 157.56 65.17C419.66 134.83 448 182.79 448 240c0 .31 0 .62-.05.93A106.36 106.36 0 0 0 398.09 271.4zM224 480a256 256 0 1 1 256-256 256 256 0 0 1-256 256zm42.05-186.51a18 18 0 1 0 18 18 18 18 0 0 0-18-18zm-61.8-34.66a18 18 0 1 0 18 18 18 18 0 0 0-18-18z"/>
  </symbol>
  <!-- Resume/doc -->
  <symbol id="icon-resume" viewBox="0 0 384 512">
    <path d="M0 64C0 28.7 28.7 0 64 0L224 0l0 128c0 17.7 14.3 32 32 32l128 0 0 288c0 35.3-28.7 64-64 64L64 512c-35.3 0-64-28.7-64-64L0 64zm384 64l-128 0L256 0 384 128z"/>
  </symbol>
  <!-- YouTube -->
  <symbol id="icon-youtube" viewBox="0 0 576 512">
    <path d="M549.655 124.083c-6.281-23.65-24.787-42.276-48.284-48.597C458.781 64 288 64 288 64S117.22 64 74.629 75.486c-23.497 6.322-42.003 24.947-48.284 48.597-11.412 42.867-11.412 132.305-11.412 132.305s0 89.438 11.412 132.305c6.281 23.65 24.787 41.5 48.284 47.821C117.22 448 288 448 288 448s170.78 0 213.371-11.486c23.497-6.321 42.003-24.171 48.284-47.821 11.412-42.867 11.412-132.305 11.412-132.305s0-89.438-11.412-132.305zm-317.51 213.508V175.185l142.739 81.205-142.739 81.201z"/>
  </symbol>
  <!-- Twitch -->
  <symbol id="icon-twitch" viewBox="0 0 512 512">
    <path d="M391.17,103.47H352.54v109.7h38.63ZM285,103H246.37V212.75H285ZM120.83,0,24.31,91.42V420.58H140.14V512l96.53-91.42h77.25L487.69,256V0ZM449.07,237.75l-77.22,73.12H294.61l-67.6,64v-64H140.14V36.58H449.07Z"/>
  </symbol>
</svg>
